<svg version="1.1" id="Layer_1" xmlns="http://www.w3.org/2000/svg" xmlns:xlink="http://www.w3.org/1999/xlink" x="0px" y="0px"
	 width="100%" viewBox="0 0 838 910" enable-background="new 0 0 838 910" xml:space="preserve">
<path fill="#FFFFFF" opacity="1.000000" stroke="none" 
	d="
M839.000000,589.000000 
	C839.000000,696.300293 839.000000,803.600525 839.000000,910.950439 
	C559.785767,910.950439 280.571564,910.950439 1.000000,910.950439 
	C1.000000,834.642944 1.000000,758.285339 1.354200,681.580750 
	C4.595383,692.429016 13.144971,697.350037 23.073809,701.125488 
	C26.042044,702.254150 29.726940,704.525635 30.752319,707.175537 
	C33.985779,715.531921 40.104782,718.878662 48.311657,720.117004 
	C53.191154,720.853333 56.949261,723.028748 60.219379,727.392639 
	C67.418251,736.999451 77.140671,741.136292 89.473763,738.086792 
	C100.638855,735.326050 108.734077,727.826050 117.356598,721.104065 
	C127.108109,713.501953 136.615662,705.586670 146.374985,697.994873 
	C155.831314,690.638733 163.762283,682.348694 166.111588,669.985535 
	C166.391571,668.512085 167.441910,666.759888 168.670868,665.960144 
	C177.302811,660.342773 182.045944,652.768555 181.034821,642.955139 
	C186.154099,639.846802 190.782761,637.203003 195.235764,634.290588 
	C200.898483,630.587036 206.418915,626.665894 212.307648,622.986328 
	C216.637375,626.816711 220.609772,630.556396 224.695557,634.167725 
	C229.876709,638.747192 234.674408,643.984436 240.471100,647.602356 
	C259.143372,659.256470 278.216431,670.267212 297.100891,681.582825 
	C314.422241,691.961853 331.699524,702.414490 348.565216,712.909546 
	C347.634338,712.987488 347.108887,713.094604 346.638367,712.978638 
	C329.788147,708.824951 310.542816,717.579590 302.040985,732.577515 
	C293.529083,747.593140 284.582611,762.366882 276.286713,777.498962 
	C271.334808,786.531372 269.865631,796.223755 271.755676,806.712219 
	C273.528839,816.552185 278.601349,824.048584 284.847137,831.013550 
	C278.670197,835.638184 275.967468,841.876587 274.393555,849.033630 
	C272.657806,856.926453 277.196320,868.351501 283.240662,871.302612 
	C284.165344,873.121826 285.322449,874.755066 286.900757,875.525513 
	C291.250702,877.649231 295.667084,880.488464 300.269989,880.957886 
	C303.615448,881.299011 305.914581,886.239685 310.033142,882.958130 
	C310.831085,882.322327 313.224121,883.557739 314.827240,884.092285 
	C317.511047,884.987183 320.085083,886.441711 322.828094,886.864868 
	C325.664734,887.302490 330.486359,885.673523 331.232300,886.899780 
	C333.782532,891.091858 336.042847,887.881836 338.472290,887.656799 
	C340.475677,892.720581 343.804199,888.811951 346.568146,888.720276 
	C348.846130,891.799438 349.890076,891.864502 355.965790,889.305664 
	C359.130035,894.670715 363.121277,891.545654 366.944702,890.317139 
	C369.532990,893.904968 372.034027,894.084045 380.082977,891.623596 
	C382.399017,892.664001 383.973175,893.979736 385.515320,893.943298 
	C389.273804,893.854431 393.008148,892.996582 396.771942,892.751587 
	C398.110718,892.664490 399.506470,893.452881 400.527588,893.907349 
	C399.705078,894.087341 399.231140,894.201477 397.600098,894.594299 
	C433.957642,894.594299 469.021454,894.594299 504.085266,894.594299 
	C504.085205,894.449707 504.085175,894.305115 504.085114,894.160522 
	C503.431488,894.054321 502.777863,893.948120 502.152039,893.471863 
	C504.245087,893.154785 506.331116,893.040588 508.371399,893.294250 
	C513.172729,893.891174 518.161133,896.127808 522.249268,891.323364 
	C530.637024,894.099121 533.338623,893.906311 536.247681,890.288025 
	C542.324585,893.040283 544.316589,892.866699 547.279480,889.340210 
	C550.216858,890.340088 553.214600,893.142456 555.937439,888.875305 
	C556.111816,888.602051 557.387634,889.119385 558.150635,889.117065 
	C560.191833,889.111023 562.232788,889.022278 564.642273,888.956299 
	C566.872375,888.313721 569.023438,887.654297 571.200806,887.097656 
	C571.674377,886.976562 572.245300,887.307373 572.765686,887.286621 
	C575.915283,887.161072 579.131836,887.338013 582.189575,886.729187 
	C584.540161,886.261169 586.600952,884.296692 588.949402,883.868042 
	C592.972107,883.133911 596.837769,883.825989 600.872314,880.951355 
	C605.080444,877.953003 611.159790,877.732239 616.031128,875.460754 
	C619.302429,873.935425 623.058838,871.524902 624.539490,868.502075 
	C627.280579,862.905945 628.584290,856.588867 627.997681,850.130737 
	C626.888550,837.921570 623.389709,832.522339 612.210693,829.569580 
	C612.114380,828.474243 611.900085,827.770630 612.051270,827.156921 
	C616.002869,811.112610 609.164612,792.587585 595.395874,783.903564 
	C579.299866,773.751831 562.995239,763.918518 546.573364,754.301880 
	C540.399353,750.686340 533.642822,748.065674 527.089111,744.544434 
	C526.814819,741.336365 526.778748,738.548340 526.360168,735.819031 
	C524.896057,726.271729 519.822144,718.714172 513.324585,712.015625 
	C522.084900,706.427368 530.463074,700.896912 538.971558,695.574829 
	C552.014587,687.416382 565.171631,679.440369 578.234924,671.314087 
	C590.194641,663.874268 602.094360,656.338013 614.342957,648.999268 
	C619.953918,657.113647 624.759888,665.281860 632.638184,671.350098 
	C647.419067,682.735229 663.627319,685.670166 681.375244,681.181946 
	C698.216309,676.923035 711.826782,667.172607 724.197754,655.379700 
	C725.484802,654.152832 727.419434,653.303711 729.188416,652.946045 
	C733.036743,652.167847 736.958557,651.645264 740.875427,651.341125 
	C745.756042,650.961975 750.815918,650.044128 755.526611,650.883850 
	C767.313782,652.984863 778.323853,651.415588 788.565002,645.473145 
	C797.680847,640.183594 806.364502,634.149170 815.479980,628.858948 
	C823.629517,624.129395 827.475891,617.465393 827.091003,608.057068 
	C827.011230,606.106750 827.885681,603.820740 829.022461,602.174133 
	C832.148987,597.645203 835.648254,593.373474 839.000000,589.000000 
z"/>
<path fill="#FFFFFF" opacity="1.000000" stroke="none" 
	d="
M1.000000,667.000000 
	C1.000000,445.093964 1.000000,223.187927 1.000000,1.000000 
	C113.691414,1.000000 226.383057,1.000000 339.364410,1.400278 
	C320.965881,1.909382 303.355896,6.835308 286.887024,15.162273 
	C270.785370,23.303566 256.841827,34.363110 244.931702,48.253609 
	C234.952255,59.892395 227.207047,72.750557 221.310425,86.597168 
	C209.847580,113.514587 206.741226,141.956573 208.016830,171.303406 
	C155.616257,223.275482 125.601776,285.807251 116.345993,358.990570 
	C115.075043,358.990570 113.609756,359.046204 112.149849,358.981079 
	C105.220810,358.672089 98.290878,358.035583 91.365868,358.091125 
	C85.581444,358.137421 80.458664,360.002686 77.620491,365.812408 
	C75.046051,371.082184 75.740288,375.896545 79.046486,380.525970 
	C93.082649,400.179749 107.087151,419.856201 121.167160,439.478485 
	C130.125931,451.963715 139.196884,464.368439 148.376587,477.028595 
	C137.198898,490.492645 134.564606,506.178986 141.509506,522.816040 
	C149.258469,541.379333 159.485260,558.664551 171.007629,575.376831 
	C166.128326,579.729309 161.260895,583.616760 156.721848,587.855896 
	C152.877930,591.445740 149.079407,593.693237 143.606003,591.396545 
	C141.997849,590.721802 139.792313,591.465149 137.860992,591.567139 
	C132.954788,591.826294 128.307434,595.543213 123.079254,592.093689 
	C119.759560,589.903320 115.978241,588.370667 112.308380,586.760986 
	C102.262581,582.354614 91.746048,581.247437 81.295830,584.419006 
	C66.404892,588.938171 56.184250,599.871521 47.169746,611.806335 
	C43.452042,616.728455 42.110142,622.701233 45.911312,628.669006 
	C49.430008,634.193298 54.628639,636.451050 60.874516,635.928589 
	C66.788338,635.433960 72.648300,634.295227 78.702499,633.414978 
	C72.816719,644.649841 63.795216,652.490173 52.432976,657.632874 
	C51.258404,651.945068 50.873531,646.130127 48.820957,640.979858 
	C44.784462,630.851685 31.643885,626.391785 24.040998,634.935608 
	C15.336474,644.717407 6.055851,654.443970 1.000000,667.000000 
z"/>
<path fill="#FFFFFF" opacity="1.000000" stroke="none" 
	d="
M349.000000,1.000000 
	C512.268494,1.000000 675.536926,1.000000 839.000000,1.000000 
	C839.000000,194.358185 839.000000,387.716461 838.635132,581.404297 
	C837.435120,579.065369 837.105347,576.074280 835.653381,573.799622 
	C833.104004,569.805786 833.416077,565.829834 833.985962,561.507141 
	C834.477173,557.781555 834.856873,553.865417 834.251221,550.204712 
	C832.581116,540.110840 825.011353,535.224121 816.263611,532.283936 
	C805.964478,528.822266 795.408997,526.123169 784.963501,523.097656 
	C781.902344,522.210938 778.789917,521.702271 779.774902,517.009277 
	C781.026245,511.046967 782.135010,504.995453 782.551147,498.930664 
	C783.226868,489.083740 782.467041,479.363098 776.992004,470.646118 
	C773.595398,465.238190 769.067017,461.875366 762.349365,462.077850 
	C755.973389,462.269989 751.791870,465.652222 749.241028,471.139343 
	C747.581848,474.708221 746.085876,478.424072 745.106995,482.226044 
	C740.245117,501.110168 733.331482,518.846069 720.400391,533.999817 
	C709.296875,547.011902 702.504639,562.026489 702.879578,579.689209 
	C702.940491,582.556213 702.639282,586.346619 700.894531,588.162354 
	C695.921631,593.337646 692.828796,598.929138 692.943848,606.185547 
	C692.951843,606.689819 692.280579,607.298279 691.795532,607.702942 
	C684.083313,614.138184 676.349915,620.548035 667.377136,627.996460 
	C664.444641,620.210815 662.145081,614.105591 659.984314,607.688843 
	C666.720703,599.449280 673.591614,591.731018 679.864990,583.554321 
	C698.961365,558.664429 713.505737,531.296326 724.118591,501.759308 
	C731.085571,482.368958 736.103760,462.523407 739.349365,442.235199 
	C748.684021,441.815857 757.763794,440.997955 766.831848,441.110992 
	C776.746521,441.234558 782.575623,430.181000 779.043091,423.419556 
	C777.416016,420.305237 775.309753,417.408569 773.181458,414.594208 
	C759.624573,396.667145 746.008850,378.784546 732.396362,360.899597 
	C723.534668,349.256561 714.645691,337.634338 705.765808,325.998596 
	C721.213135,314.690948 726.780640,293.634705 719.835449,276.948517 
	C714.489380,264.104126 708.237732,251.582001 701.609802,239.338257 
	C691.105835,219.934143 678.132812,202.101471 663.193054,185.927765 
	C649.531189,171.137543 634.977783,157.205399 618.726013,145.083176 
	C592.930603,125.842270 565.263184,110.170029 534.878174,99.514572 
	C525.450623,96.208504 515.715881,93.778381 506.234375,90.543823 
	C505.900269,82.229233 505.916992,74.259155 504.920563,66.417831 
	C501.843597,42.203777 487.809692,25.404097 467.090027,14.142722 
	C446.447845,2.923490 424.532349,4.189836 402.610535,10.154628 
	C398.537140,11.262970 395.113953,12.180719 390.553772,10.515558 
	C381.547119,7.226771 372.036530,5.263792 362.661987,3.060379 
	C358.193420,2.010072 353.559204,1.664695 349.000000,1.000000 
z"/>
<path fill="#16213B" opacity="1.000000" stroke="none" 
	d="
M348.550018,1.000000 
	C353.559204,1.664695 358.193420,2.010072 362.661987,3.060379 
	C372.036530,5.263792 381.547119,7.226771 390.553772,10.515558 
	C395.113953,12.180719 398.537140,11.262970 402.610535,10.154628 
	C424.532349,4.189836 446.447845,2.923490 467.090027,14.142722 
	C487.809692,25.404097 501.843597,42.203777 504.920563,66.417831 
	C505.916992,74.259155 505.900269,82.229233 506.187561,90.976685 
	C504.185577,111.697327 497.526672,129.881958 486.135284,146.212875 
	C480.769958,153.904755 474.650757,161.070801 468.524811,168.558258 
	C466.002594,170.828430 463.828674,173.015472 461.419128,175.522766 
	C454.997253,200.401505 444.385712,222.852036 429.443146,243.862778 
	C428.938751,233.479172 428.809235,223.842361 427.931366,214.274231 
	C426.379730,197.362717 423.084930,180.837616 414.964325,165.293243 
	C403.263367,141.638031 385.041168,126.492165 359.273499,121.355286 
	C340.474579,117.607658 321.828705,119.613594 303.444458,124.556206 
	C270.697174,133.360352 241.617920,149.634506 213.818115,168.536835 
	C212.148148,169.672333 210.058701,170.190887 208.164429,170.996521 
	C206.741226,141.956573 209.847580,113.514587 221.310425,86.597168 
	C227.207047,72.750557 234.952255,59.892395 244.931702,48.253609 
	C256.841827,34.363110 270.785370,23.303566 286.887024,15.162273 
	C303.355896,6.835308 320.965881,1.909382 339.827057,1.400278 
	C342.700012,1.000000 345.400024,1.000000 348.550018,1.000000 
M423.136200,30.995819 
	C423.009888,30.765806 422.883606,30.535793 422.757324,30.305779 
	C422.730438,30.604445 422.703552,30.903112 423.166626,31.665745 
	C446.527863,54.091522 458.837006,82.142349 464.631195,113.547150 
	C465.117645,99.040474 462.983795,85.020172 457.825287,71.581650 
	C451.666779,55.538124 442.325409,41.851269 427.298401,32.742077 
	C425.919373,31.906132 424.139038,31.732227 423.136200,30.995819 
z"/>
<path fill="#1A2640" opacity="1.000000" stroke="none" 
	d="
M659.845520,608.000427 
	C662.145081,614.105591 664.444641,620.210815 667.377136,627.996460 
	C676.349915,620.548035 684.083313,614.138184 691.795532,607.702942 
	C692.280579,607.298279 692.951843,606.689819 692.943848,606.185547 
	C692.828796,598.929138 695.921631,593.337646 700.894531,588.162354 
	C702.639282,586.346619 702.940491,582.556213 702.879578,579.689209 
	C702.504639,562.026489 709.296875,547.011902 720.400391,533.999817 
	C733.331482,518.846069 740.245117,501.110168 745.106995,482.226044 
	C746.085876,478.424072 747.581848,474.708221 749.241028,471.139343 
	C751.791870,465.652222 755.973389,462.269989 762.349365,462.077850 
	C769.067017,461.875366 773.595398,465.238190 776.992004,470.646118 
	C782.467041,479.363098 783.226868,489.083740 782.551147,498.930664 
	C782.135010,504.995453 781.026245,511.046967 779.774902,517.009277 
	C778.789917,521.702271 781.902344,522.210938 784.963501,523.097656 
	C795.408997,526.123169 805.964478,528.822266 816.263611,532.283936 
	C825.011353,535.224121 832.581116,540.110840 834.251221,550.204712 
	C834.856873,553.865417 834.477173,557.781555 833.985962,561.507141 
	C833.416077,565.829834 833.104004,569.805786 835.653381,573.799622 
	C837.105347,576.074280 837.435120,579.065369 838.635132,581.866943 
	C839.000000,584.041687 839.000000,586.083313 839.000000,588.562500 
	C835.648254,593.373474 832.148987,597.645203 829.022461,602.174133 
	C827.885681,603.820740 827.011230,606.106750 827.091003,608.057068 
	C827.475891,617.465393 823.629517,624.129395 815.479980,628.858948 
	C806.364502,634.149170 797.680847,640.183594 788.565002,645.473145 
	C778.323853,651.415588 767.313782,652.984863 755.526611,650.883850 
	C750.815918,650.044128 745.756042,650.961975 740.875427,651.341125 
	C736.958557,651.645264 733.036743,652.167847 729.188416,652.946045 
	C727.419434,653.303711 725.484802,654.152832 724.197754,655.379700 
	C711.826782,667.172607 698.216309,676.923035 681.375244,681.181946 
	C663.627319,685.670166 647.419067,682.735229 632.638184,671.350098 
	C624.759888,665.281860 619.953918,657.113647 614.487183,648.704102 
	C623.457092,640.548889 632.722900,632.977783 641.713196,625.092468 
	C647.953613,619.618958 653.814880,613.713135 659.845520,608.000427 
M747.065674,641.683350 
	C762.136353,646.276001 776.024414,644.420776 789.021179,634.283875 
	C782.207703,632.812561 775.942688,631.880249 769.937439,630.081055 
	C754.330566,625.405396 749.894409,614.419250 757.665527,600.242554 
	C756.850281,599.709839 756.043701,599.140259 755.197998,598.636475 
	C741.645752,590.561523 739.677490,577.079834 750.105469,565.205994 
	C751.328491,563.813416 752.000793,561.283203 751.797546,559.402649 
	C750.814331,550.306030 754.778320,544.270630 762.253662,539.512634 
	C765.089478,537.707642 767.632080,534.521912 768.938477,531.393433 
	C774.554321,517.944702 776.307190,503.730103 774.775208,489.324249 
	C774.250183,484.387268 772.153503,479.324066 769.651917,474.962585 
	C766.302002,469.121948 760.046997,469.136505 756.335999,474.729095 
	C754.365356,477.698822 753.118164,481.271362 752.110046,484.736328 
	C746.978516,502.373749 741.285339,519.696533 728.379578,533.551941 
	C727.141174,534.881470 726.169250,536.467529 725.131958,537.974731 
	C712.001892,557.052124 706.003479,577.275757 714.948914,600.013306 
	C716.463928,603.864319 717.456360,607.925903 718.585938,611.919800 
	C718.858398,612.883240 718.715271,613.964233 718.763306,614.991211 
	C718.265320,615.203796 717.767395,615.416321 717.269470,615.628845 
	C713.100830,608.224243 708.932190,600.819580 704.339783,592.662231 
	C703.055298,595.973022 701.587524,598.361877 701.266602,600.895996 
	C700.726074,605.164368 699.172119,609.621277 703.071472,613.526306 
	C713.415710,623.885803 723.524353,634.480469 733.864380,644.844238 
	C734.692993,645.674805 736.578369,645.451111 737.972656,645.717346 
	C735.806030,641.384216 733.189880,638.382812 730.789551,635.217712 
	C730.028503,634.214172 729.843384,632.773804 729.394714,631.533325 
	C730.598083,631.945801 731.925476,632.156250 732.983398,632.805664 
	C737.488647,635.571350 741.914124,638.466919 747.065674,641.683350 
M804.248779,536.094788 
	C797.447388,534.613586 790.619995,533.240234 783.854553,531.609924 
	C779.901794,530.657410 776.787354,531.710815 773.819092,534.661682 
	C781.022522,537.232971 787.958130,539.708740 794.893799,542.184448 
	C794.874084,542.637756 794.854431,543.091064 794.834717,543.544373 
	C793.431702,543.778259 792.014771,544.274597 790.627991,544.201416 
	C783.987915,543.851257 777.358948,543.042053 770.720398,542.978577 
	C763.359985,542.908142 759.075134,546.917480 758.595642,553.471863 
	C758.111938,560.083862 762.224670,565.080872 769.538757,565.814941 
	C783.598816,567.226135 797.685730,568.418091 811.782654,569.395691 
	C819.506531,569.931335 823.716919,567.176086 825.513306,561.347778 
	C827.686768,554.296326 825.677979,547.655029 819.564087,543.878479 
	C814.927368,541.014343 809.858887,538.849182 804.248779,536.094788 
M787.283264,576.169617 
	C778.661987,574.413879 769.999390,572.835632 761.433899,570.840332 
	C755.663452,569.496155 753.164429,570.490845 751.069702,575.988403 
	C749.131165,581.076294 750.558899,586.554138 755.432617,589.525574 
	C759.062134,591.738464 763.146973,593.848267 767.266785,594.498901 
	C782.871155,596.963257 798.555542,599.022034 814.433044,597.031128 
	C827.728516,595.363892 831.309570,589.909485 827.248535,576.271545 
	C814.373718,576.271545 801.279358,576.271545 787.283264,576.169617 
M796.956116,624.680725 
	C800.576904,624.171692 804.252686,623.906677 807.807373,623.104614 
	C816.133850,621.225708 819.969482,615.191895 818.640747,606.284851 
	C802.778564,605.194702 786.874573,604.076233 770.964600,603.051208 
	C769.514221,602.957703 767.962158,603.269592 766.565002,603.724365 
	C760.108215,605.825500 758.076355,613.748779 763.369385,617.930847 
	C766.871704,620.698120 771.326904,623.041992 775.663269,623.789490 
	C782.316589,624.936340 789.234741,624.546387 796.956116,624.680725 
z"/>
<path fill="#17243E" opacity="1.000000" stroke="none" 
	d="
M1.000000,667.464661 
	C6.055851,654.443970 15.336474,644.717407 24.040998,634.935608 
	C31.643885,626.391785 44.784462,630.851685 48.820957,640.979858 
	C50.873531,646.130127 51.258404,651.945068 52.432976,657.632874 
	C63.795216,652.490173 72.816719,644.649841 78.702499,633.414978 
	C72.648300,634.295227 66.788338,635.433960 60.874516,635.928589 
	C54.628639,636.451050 49.430008,634.193298 45.911312,628.669006 
	C42.110142,622.701233 43.452042,616.728455 47.169746,611.806335 
	C56.184250,599.871521 66.404892,588.938171 81.295830,584.419006 
	C91.746048,581.247437 102.262581,582.354614 112.308380,586.760986 
	C115.978241,588.370667 119.759560,589.903320 123.079254,592.093689 
	C128.307434,595.543213 132.954788,591.826294 137.860992,591.567139 
	C139.792313,591.465149 141.997849,590.721802 143.606003,591.396545 
	C149.079407,593.693237 152.877930,591.445740 156.721848,587.855896 
	C161.260895,583.616760 166.128326,579.729309 171.303848,575.511719 
	C182.912582,588.603699 194.061508,601.881226 205.237091,615.136353 
	C207.439056,617.748108 209.743500,620.273438 212.000687,622.838623 
	C206.418915,626.665894 200.898483,630.587036 195.235764,634.290588 
	C190.782761,637.203003 186.154099,639.846802 181.034821,642.955139 
	C182.045944,652.768555 177.302811,660.342773 168.670868,665.960144 
	C167.441910,666.759888 166.391571,668.512085 166.111588,669.985535 
	C163.762283,682.348694 155.831314,690.638733 146.374985,697.994873 
	C136.615662,705.586670 127.108109,713.501953 117.356598,721.104065 
	C108.734077,727.826050 100.638855,735.326050 89.473763,738.086792 
	C77.140671,741.136292 67.418251,736.999451 60.219379,727.392639 
	C56.949261,723.028748 53.191154,720.853333 48.311657,720.117004 
	C40.104782,718.878662 33.985779,715.531921 30.752319,707.175537 
	C29.726940,704.525635 26.042044,702.254150 23.073809,701.125488 
	C13.144971,697.350037 4.595383,692.429016 1.354200,681.116882 
	C1.000000,676.643127 1.000000,672.286194 1.000000,667.464661 
M102.643501,722.173767 
	C117.319336,710.679565 132.043121,699.245972 146.654648,687.670532 
	C156.854218,679.590393 161.971710,669.077820 161.170181,655.901550 
	C161.057159,654.043701 161.154541,652.173035 161.154541,650.308350 
	C161.524429,650.228210 161.894318,650.148071 162.264191,650.067932 
	C163.687561,653.368652 165.110931,656.669312 167.131058,661.353882 
	C169.473495,657.118164 172.225708,654.146606 172.691864,650.851624 
	C173.488800,645.218384 173.921402,639.122498 172.597107,633.686096 
	C169.845627,622.391052 164.426178,612.197021 155.165207,604.675720 
	C149.015076,599.680908 142.062729,597.418579 133.577881,600.135437 
	C137.491714,605.040344 141.114395,609.355347 144.480255,613.862061 
	C147.833633,618.352051 150.956345,623.022766 151.121582,629.058228 
	C149.129608,627.686951 147.751724,625.921753 146.299072,624.220398 
	C141.980789,619.163025 137.978958,613.774414 133.225723,609.162170 
	C122.961411,599.202454 110.942657,591.917603 96.360909,591.238220 
	C77.567955,590.362610 64.262520,600.219788 54.283035,615.277283 
	C49.718151,622.164978 52.201782,627.046692 60.390934,628.033752 
	C69.788269,629.166443 76.764328,624.934387 82.755318,618.379761 
	C85.146240,615.763916 87.365150,612.990784 89.662369,610.289246 
	C90.101082,610.449707 90.539795,610.610229 90.978508,610.770691 
	C91.047279,611.913452 91.406532,613.129944 91.138367,614.187256 
	C89.184586,621.890503 87.533745,629.708679 84.964973,637.208984 
	C81.003662,648.775146 73.232941,657.209717 61.799522,661.870972 
	C52.234306,665.770447 41.762001,668.201965 36.547848,679.108337 
	C35.990273,677.282104 35.813869,675.743530 36.366917,674.540161 
	C38.027554,670.926392 40.259983,667.559875 41.749710,663.886169 
	C45.285118,655.167908 43.734875,648.034546 38.028244,642.285461 
	C35.063095,639.298218 32.495773,639.370850 30.099133,642.361328 
	C23.761076,650.269897 17.178551,658.039856 11.545495,666.436707 
	C7.505925,672.458191 9.849333,681.184814 15.671556,686.875549 
	C21.458340,692.531616 28.797340,693.789917 35.467625,690.260559 
	C47.937321,683.662537 60.306927,676.862366 72.948029,670.611206 
	C75.782524,669.209473 80.079254,668.514282 82.775536,669.665527 
	C85.988976,671.037598 88.062630,674.911804 90.912445,677.375366 
	C92.280144,678.557617 94.422874,679.851868 96.000084,679.622192 
	C107.505417,677.946716 115.227905,685.862610 112.464828,697.161072 
	C109.436089,709.545837 100.268372,716.039124 89.124214,720.388306 
	C88.248589,720.729980 87.199142,720.626282 84.954880,720.865723 
	C86.635681,719.281738 87.377693,718.690674 87.991020,717.987427 
	C93.231865,711.978271 98.633430,706.095459 103.599655,699.866150 
	C106.259933,696.529297 107.117737,692.106812 103.756287,688.923828 
	C100.399918,685.745728 96.463181,687.635559 93.410271,690.226196 
	C86.561089,696.038269 79.759903,701.921692 73.215012,708.069702 
	C70.842804,710.298035 68.980095,713.216064 67.438248,716.113831 
	C66.752205,717.403198 66.750427,720.007935 67.610184,721.012756 
	C72.851418,727.138000 79.403824,731.276794 87.731148,729.096008 
	C92.738693,727.784607 97.320892,724.848999 102.643501,722.173767 
M70.411049,678.930481 
	C66.437477,680.975769 62.327690,682.797424 58.520802,685.116394 
	C52.045231,689.060852 45.694355,693.223083 39.460625,697.538696 
	C38.432011,698.250854 37.542919,700.381714 37.821617,701.567200 
	C39.606003,709.157837 46.109276,711.329895 52.418591,713.530457 
	C57.122055,715.170959 58.680161,711.003601 61.135983,708.534912 
	C62.658798,707.004150 64.167221,705.453247 65.769798,704.008667 
	C71.564262,698.785034 77.443573,693.654663 83.194618,688.384094 
	C86.354645,685.488098 86.574936,682.187866 84.115379,678.610596 
	C81.681297,675.070374 78.597412,674.733215 75.000755,676.456604 
	C73.659752,677.099243 72.378670,677.866882 70.411049,678.930481 
z"/>
<path fill="#F58522" opacity="1.000000" stroke="none" 
	d="
M212.307648,622.986328 
	C209.743500,620.273438 207.439056,617.748108 205.237091,615.136353 
	C194.061508,601.881226 182.912582,588.603699 171.458069,575.199158 
	C159.485260,558.664551 149.258469,541.379333 141.509506,522.816040 
	C134.564606,506.178986 137.198898,490.492645 148.376587,477.028595 
	C139.196884,464.368439 130.125931,451.963715 121.167160,439.478485 
	C107.087151,419.856201 93.082649,400.179749 79.046486,380.525970 
	C75.740288,375.896545 75.046051,371.082184 77.620491,365.812408 
	C80.458664,360.002686 85.581444,358.137421 91.365868,358.091125 
	C98.290878,358.035583 105.220810,358.672089 112.149849,358.981079 
	C113.609756,359.046204 115.075043,358.990570 116.345993,358.990570 
	C125.601776,285.807251 155.616257,223.275482 208.016830,171.303406 
	C210.058701,170.190887 212.148148,169.672333 213.818115,168.536835 
	C241.617920,149.634506 270.697174,133.360352 303.444458,124.556206 
	C321.828705,119.613594 340.474579,117.607658 359.273499,121.355286 
	C385.041168,126.492165 403.263367,141.638031 414.506836,165.328644 
	C360.460052,169.129761 313.695526,189.087708 274.047729,225.076736 
	C234.463120,261.008423 210.533539,305.656586 201.562866,358.910126 
	C211.032623,358.910126 219.506989,358.910126 228.404205,358.989044 
	C235.572632,358.458710 240.377213,361.469391 243.845993,367.530701 
	C243.612061,371.649719 243.315857,375.325562 242.736893,379.178101 
	C236.606857,386.804626 230.759567,394.254517 224.614960,401.879669 
	C207.850708,422.380524 191.383774,442.706116 174.448685,463.609558 
	C194.658829,461.991394 210.254288,471.609192 219.047104,488.871521 
	C225.967941,502.458649 233.312775,515.976074 241.930313,528.520874 
	C257.707092,551.487549 277.266968,570.940552 301.241913,585.494812 
	C325.816345,600.413025 350.578583,615.022095 375.280334,629.730103 
	C394.130920,640.954285 413.015411,652.121521 432.104034,663.561890 
	C441.573975,669.362610 450.821198,674.921326 460.076111,680.467285 
	C477.715363,691.037659 495.358978,701.600708 513.000793,712.166809 
	C519.822144,718.714172 524.896057,726.271729 526.360168,735.819031 
	C526.778748,738.548340 526.814819,741.336365 526.994324,744.957214 
	C525.636047,762.287292 517.983887,774.585571 503.050110,782.085938 
	C493.750244,786.756592 483.961700,786.782959 473.613739,785.092285 
	C470.218201,783.891479 466.978729,783.149597 464.234619,781.555176 
	C453.750061,775.463501 443.424896,769.097473 432.911926,762.522827 
	C427.543854,759.014221 422.335632,755.763550 417.058685,752.628540 
	C396.796417,740.590454 376.512085,728.589539 355.987793,716.345703 
	C353.491821,715.022644 351.244019,713.928650 348.996246,712.834656 
	C331.699524,702.414490 314.422241,691.961853 297.100891,681.582825 
	C278.216431,670.267212 259.143372,659.256470 240.471100,647.602356 
	C234.674408,643.984436 229.876709,638.747192 224.695557,634.167725 
	C220.609772,630.556396 216.637375,626.816711 212.307648,622.986328 
z"/>
<path fill="#00559F" opacity="1.000000" stroke="none" 
	d="
M513.324585,712.015625 
	C495.358978,701.600708 477.715363,691.037659 460.076111,680.467285 
	C450.821198,674.921326 441.573975,669.362610 432.436401,663.405029 
	C456.857635,647.614868 481.169434,632.235107 505.472412,616.841431 
	C520.219299,607.500671 534.623474,597.555847 549.802246,588.981018 
	C560.746033,582.798645 570.998840,575.998230 580.345215,567.246826 
	C580.846313,566.825012 581.065552,566.509338 581.225769,566.202515 
	C581.166748,566.211487 581.260559,566.285339 581.581421,566.189514 
	C618.499512,533.131287 641.914062,492.539673 653.138855,444.036804 
	C644.528687,444.438477 636.751221,444.801300 628.542542,445.093933 
	C621.646057,445.556122 616.103516,443.964661 613.107910,437.672760 
	C610.150146,431.460358 612.455811,426.212311 616.424683,421.165680 
	C621.551880,414.646027 626.344238,407.863007 631.568970,401.021027 
	C648.547974,378.768799 665.238770,356.688965 682.207703,334.241180 
	C661.480347,333.385529 647.940308,323.909454 640.290588,305.462616 
	C627.666687,275.021210 608.892334,248.785721 584.663940,226.496109 
	C551.628967,196.104660 512.882507,177.014069 468.873138,168.475113 
	C474.650757,161.070801 480.769958,153.904755 486.135284,146.212875 
	C497.526672,129.881958 504.185577,111.697327 506.074982,91.380096 
	C515.715881,93.778381 525.450623,96.208504 534.878174,99.514572 
	C565.263184,110.170029 592.930603,125.842270 618.726013,145.083176 
	C634.977783,157.205399 649.531189,171.137543 663.193054,185.927765 
	C678.132812,202.101471 691.105835,219.934143 701.609802,239.338257 
	C708.237732,251.582001 714.489380,264.104126 719.835449,276.948517 
	C726.780640,293.634705 721.213135,314.690948 705.765808,325.998596 
	C714.645691,337.634338 723.534668,349.256561 732.396362,360.899597 
	C746.008850,378.784546 759.624573,396.667145 773.181458,414.594208 
	C775.309753,417.408569 777.416016,420.305237 779.043091,423.419556 
	C782.575623,430.181000 776.746521,441.234558 766.831848,441.110992 
	C757.763794,440.997955 748.684021,441.815857 739.349365,442.235199 
	C736.103760,462.523407 731.085571,482.368958 724.118591,501.759308 
	C713.505737,531.296326 698.961365,558.664429 679.864990,583.554321 
	C673.591614,591.731018 666.720703,599.449280 659.984314,607.688843 
	C653.814880,613.713135 647.953613,619.618958 641.713196,625.092468 
	C632.722900,632.977783 623.457092,640.548889 614.164673,648.549194 
	C602.094360,656.338013 590.194641,663.874268 578.234924,671.314087 
	C565.171631,679.440369 552.014587,687.416382 538.971558,695.574829 
	C530.463074,700.896912 522.084900,706.427368 513.324585,712.015625 
z"/>
<path fill="#BEBDBD" opacity="1.000000" stroke="none" 
	d="
M400.876190,893.841553 
	C399.506470,893.452881 398.110718,892.664490 396.771942,892.751587 
	C393.008148,892.996582 389.273804,893.854431 385.515320,893.943298 
	C383.973175,893.979736 382.399017,892.664001 380.082977,891.623596 
	C372.034027,894.084045 369.532990,893.904968 366.944702,890.317139 
	C363.121277,891.545654 359.130035,894.670715 355.965790,889.305664 
	C349.890076,891.864502 348.846130,891.799438 346.568146,888.720276 
	C343.804199,888.811951 340.475677,892.720581 338.472290,887.656799 
	C336.042847,887.881836 333.782532,891.091858 331.232300,886.899780 
	C330.486359,885.673523 325.664734,887.302490 322.828094,886.864868 
	C320.085083,886.441711 317.511047,884.987183 314.827240,884.092285 
	C313.224121,883.557739 310.831085,882.322327 310.033142,882.958130 
	C305.914581,886.239685 303.615448,881.299011 300.269989,880.957886 
	C295.667084,880.488464 291.250702,877.649231 286.900757,875.525513 
	C285.322449,874.755066 284.165344,873.121826 283.240662,871.302612 
	C277.196320,868.351501 272.657806,856.926453 274.393555,849.033630 
	C275.967468,841.876587 278.670197,835.638184 285.182617,831.084045 
	C289.184631,833.100220 292.548981,835.074524 296.103760,837.366943 
	C314.171051,844.813843 334.241974,840.047302 345.874512,825.669434 
	C348.775391,821.896484 351.475952,818.411987 354.618713,814.927490 
	C358.338104,815.171570 361.654602,815.856628 364.884308,815.568542 
	C371.742981,814.956604 378.662506,814.300293 385.351379,812.765625 
	C389.846832,811.734070 394.036865,813.343811 398.732147,812.445435 
	C406.714539,810.918030 415.297607,812.578247 423.631287,812.753601 
	C424.368103,812.769104 425.127350,811.715454 426.353088,811.134033 
	C443.596344,811.125488 460.362671,811.141296 477.143433,811.505249 
	C479.046478,811.878235 480.935181,811.902954 482.952271,812.250000 
	C487.050568,815.728638 491.020386,818.884949 495.161957,822.337891 
	C499.871643,825.165161 504.409576,827.695801 509.143677,830.493469 
	C512.558289,832.514893 515.776733,834.269226 519.162170,836.318054 
	C522.548645,838.416931 525.768066,840.221375 529.165649,842.313843 
	C536.466614,846.834045 543.382568,851.474548 550.756714,855.210632 
	C564.663269,862.256348 578.656677,862.511292 592.558167,853.932861 
	C595.000793,852.144470 597.175476,850.547668 599.654907,848.764282 
	C601.585632,846.710999 603.211487,844.844360 605.076416,842.733765 
	C606.489746,840.322083 607.664001,838.154297 608.995422,835.662415 
	C610.189331,833.559937 611.226135,831.781555 612.262939,830.003174 
	C623.389709,832.522339 626.888550,837.921570 627.997681,850.130737 
	C628.584290,856.588867 627.280579,862.905945 624.539490,868.502075 
	C623.058838,871.524902 619.302429,873.935425 616.031128,875.460754 
	C611.159790,877.732239 605.080444,877.953003 600.872314,880.951355 
	C596.837769,883.825989 592.972107,883.133911 588.949402,883.868042 
	C586.600952,884.296692 584.540161,886.261169 582.189575,886.729187 
	C579.131836,887.338013 575.915283,887.161072 572.765686,887.286621 
	C572.245300,887.307373 571.674377,886.976562 571.200806,887.097656 
	C569.023438,887.654297 566.872375,888.313721 564.642273,888.956299 
	C562.232788,889.022278 560.191833,889.111023 558.150635,889.117065 
	C557.387634,889.119385 556.111816,888.602051 555.937439,888.875305 
	C553.214600,893.142456 550.216858,890.340088 547.279480,889.340210 
	C544.316589,892.866699 542.324585,893.040283 536.247681,890.288025 
	C533.338623,893.906311 530.637024,894.099121 522.249268,891.323364 
	C518.161133,896.127808 513.172729,893.891174 508.371399,893.294250 
	C506.331116,893.040588 504.245087,893.154785 501.674866,893.496155 
	C467.738647,893.874207 434.307434,893.857910 400.876190,893.841553 
M487.948059,889.959412 
	C490.890259,888.835632 490.896393,887.248047 488.203644,886.046692 
	C486.460541,885.269043 484.349091,885.046570 482.401154,885.040222 
	C461.764343,884.972595 441.127167,884.997009 420.490112,885.002014 
	C419.492828,885.002258 418.330475,884.739136 417.533264,885.153381 
	C415.961945,885.969910 414.593140,887.176147 413.140625,888.221252 
	C414.648010,888.814148 416.153015,889.916626 417.663147,889.923645 
	C440.796112,890.031006 463.929718,889.995483 487.948059,889.959412 
M495.808228,889.674927 
	C493.769958,890.116272 491.733154,890.933289 489.693176,890.941345 
	C466.741882,891.031860 443.789795,891.066895 420.838806,890.947388 
	C415.369568,890.918884 409.519012,892.478516 404.708008,888.195496 
	C404.543884,888.049438 403.860809,888.486389 403.419617,888.651611 
	C403.280792,889.068726 403.141937,889.485840 403.003082,889.902954 
	C405.309540,890.600891 407.613007,891.894531 409.922882,891.906067 
	C437.696960,892.045105 465.472198,892.043884 493.246277,891.899109 
	C495.462799,891.887512 497.672363,890.541565 499.885193,889.815735 
	C499.673889,889.251770 499.462616,888.687744 499.251312,888.123779 
	C498.296112,888.463196 497.340942,888.802612 495.808228,889.674927 
z"/>
<path fill="#14213C" opacity="1.000000" stroke="none" 
	d="
M295.913330,837.048828 
	C292.548981,835.074524 289.184631,833.100220 285.484802,831.055420 
	C278.601349,824.048584 273.528839,816.552185 271.755676,806.712219 
	C269.865631,796.223755 271.334808,786.531372 276.286713,777.498962 
	C284.582611,762.366882 293.529083,747.593140 302.040985,732.577515 
	C310.542816,717.579590 329.788147,708.824951 346.638367,712.978638 
	C347.108887,713.094604 347.634338,712.987488 348.565216,712.909546 
	C351.244019,713.928650 353.491821,715.022644 355.827515,716.701538 
	C347.173798,733.642212 348.228088,749.537048 359.384827,764.150818 
	C363.269501,769.239075 369.197968,772.767090 374.103271,777.368652 
	C368.971588,786.690613 363.856567,795.611633 358.926147,804.633423 
	C357.118073,807.941895 355.746979,811.489136 354.176544,814.927490 
	C351.475952,818.411987 348.775391,821.896484 345.448029,825.677734 
	C335.521027,827.308655 326.112335,828.144043 316.955383,830.136475 
	C309.779724,831.697754 302.915771,834.691406 295.913330,837.048828 
z"/>
<path fill="#15213C" opacity="1.000000" stroke="none" 
	d="
M494.990234,822.041260 
	C491.020386,818.884949 487.050568,815.728638 482.920044,811.911011 
	C481.876740,810.779053 480.994080,810.308350 480.161407,809.820435 
	C480.211395,809.803101 480.245880,809.703064 480.286346,809.326111 
	C476.801544,801.395935 473.377350,793.815857 473.997314,785.159729 
	C483.961700,786.782959 493.750244,786.756592 503.050110,782.085938 
	C517.983887,774.585571 525.636047,762.287292 527.057129,745.404175 
	C533.642822,748.065674 540.399353,750.686340 546.573364,754.301880 
	C562.995239,763.918518 579.299866,773.751831 595.395874,783.903564 
	C609.164612,792.587585 616.002869,811.112610 612.051270,827.156921 
	C611.900085,827.770630 612.114380,828.474243 612.210693,829.569580 
	C611.226135,831.781555 610.189331,833.559937 608.621521,835.659363 
	C603.072083,834.320862 598.137817,832.318909 593.020691,831.060669 
	C570.349060,825.486145 547.214661,823.302612 523.968262,821.968811 
	C516.068420,821.515503 508.196045,820.567078 500.294800,820.170166 
	C498.562317,820.083130 496.760254,821.381104 494.990234,822.041260 
z"/>
<path fill="#808080" opacity="1.000000" stroke="none" 
	d="
M400.527588,893.907349 
	C434.307434,893.857910 467.738647,893.874207 501.647034,893.866211 
	C502.777863,893.948120 503.431488,894.054321 504.085114,894.160522 
	C504.085175,894.305115 504.085205,894.449707 504.085266,894.594299 
	C469.021454,894.594299 433.957642,894.594299 397.600098,894.594299 
	C399.231140,894.201477 399.705078,894.087341 400.527588,893.907349 
z"/>
<path fill="#FFEEDB" opacity="1.000000" stroke="none" 
	d="
M631.280762,401.193420 
	C626.344238,407.863007 621.551880,414.646027 616.424683,421.165680 
	C612.455811,426.212311 610.150146,431.460358 613.107910,437.672760 
	C616.103516,443.964661 621.646057,445.556122 628.543945,445.505005 
	C627.664062,453.310333 626.572327,460.682129 625.000977,467.950226 
	C617.748474,501.497192 604.346191,532.353027 584.302551,560.283630 
	C583.010254,562.084412 582.261902,564.275696 581.260559,566.285339 
	C581.260559,566.285339 581.166748,566.211487 580.914795,566.254639 
	C580.463013,566.649475 580.263184,567.001221 580.063354,567.352905 
	C570.998840,575.998230 560.746033,582.798645 549.802246,588.981018 
	C534.623474,597.555847 520.219299,607.500671 505.472412,616.841431 
	C481.169434,632.235107 456.857635,647.614868 432.217163,663.157288 
	C413.015411,652.121521 394.130920,640.954285 375.280334,629.730103 
	C350.578583,615.022095 325.816345,600.413025 301.241913,585.494812 
	C277.266968,570.940552 257.707092,551.487549 241.930313,528.520874 
	C233.312775,515.976074 225.967941,502.458649 219.047104,488.871521 
	C210.254288,471.609192 194.658829,461.991394 174.448685,463.609558 
	C191.383774,442.706116 207.850708,422.380524 224.641876,402.352386 
	C225.296005,405.773254 225.781326,408.889252 225.930298,412.021271 
	C226.829178,430.920288 231.534439,448.961517 238.022461,466.619415 
	C247.300827,491.871613 261.062988,514.476624 279.021118,534.403625 
	C298.962616,556.531433 322.758606,573.569214 349.881531,585.919617 
	C350.885529,586.376709 352.005981,586.578125 353.837311,587.128723 
	C353.074158,585.968140 352.960236,585.597107 352.712189,585.445801 
	C334.344543,574.242676 317.870667,560.848022 303.255219,544.946289 
	C284.714783,524.774170 270.288666,502.180908 259.915436,476.877838 
	C252.510925,458.816193 247.585068,440.050934 245.236923,420.773804 
	C243.787170,408.872131 244.375229,396.725250 243.957596,384.691620 
	C243.891479,382.786316 243.344376,380.897736 243.019638,379.001404 
	C243.315857,375.325562 243.612061,371.649719 244.171509,367.291687 
	C245.587830,360.951080 246.847183,355.311951 247.877151,349.631256 
	C255.911896,305.315613 276.580017,267.437073 307.580811,235.287720 
	C317.754944,224.736664 330.071106,216.254059 341.370575,206.781265 
	C342.701538,205.665466 343.795929,204.267471 345.142822,202.948792 
	C345.190430,202.931320 345.095215,202.965347 344.639435,203.036377 
	C338.007751,206.464310 331.615814,209.651276 325.487213,213.282700 
	C302.934326,226.646057 284.054810,244.168350 268.095306,264.865509 
	C254.414566,282.607483 243.710861,302.102295 236.609253,323.297729 
	C232.743057,334.836731 230.794693,347.018341 227.981354,358.910126 
	C219.506989,358.910126 211.032623,358.910126 201.562866,358.910126 
	C210.533539,305.656586 234.463120,261.008423 274.047729,225.076736 
	C313.695526,189.087708 360.460052,169.129761 414.531616,165.666321 
	C423.084930,180.837616 426.379730,197.362717 427.931366,214.274231 
	C428.809235,223.842361 428.938751,233.479172 429.443146,243.862778 
	C444.385712,222.852036 454.997253,200.401505 461.575256,175.907043 
	C463.876007,176.909134 465.720215,178.021500 467.703949,178.758224 
	C486.323669,185.673523 503.854187,194.766235 520.227783,205.928543 
	C540.901794,220.022522 559.204956,236.779968 574.897766,256.354218 
	C589.624512,274.723450 601.918335,294.555634 610.899109,316.320587 
	C621.775452,342.679688 629.062622,369.931366 630.091187,398.621582 
	C630.122375,399.491943 630.868164,400.336700 631.280762,401.193420 
M518.705383,474.101196 
	C510.776733,476.404816 502.971039,479.371277 494.893066,480.869904 
	C479.519806,483.721863 464.015869,485.916138 448.520264,488.049805 
	C429.836853,490.622467 411.250397,488.300079 392.660217,486.442932 
	C388.440857,486.021423 384.147736,486.338501 379.200195,486.116364 
	C371.036621,480.845490 362.873016,475.574615 354.030792,469.865570 
	C357.140228,467.380249 359.147705,465.775726 361.187683,464.145203 
	C355.761993,462.056427 351.624847,463.190125 349.132751,467.387390 
	C346.446808,471.911072 347.280212,477.734772 351.248749,481.115570 
	C351.713806,479.018402 352.156158,477.023529 352.547089,475.260559 
	C362.478363,482.389008 371.787903,489.956390 381.921997,496.181335 
	C413.869843,515.805542 447.767395,521.427307 483.511597,507.787720 
	C506.941528,498.847137 525.920166,483.816711 540.694641,463.161499 
	C541.608948,465.215759 542.422913,467.044708 543.382690,469.201263 
	C546.411377,463.242004 546.027832,457.349426 542.446289,453.897186 
	C538.906555,450.485260 534.942444,450.428284 530.346069,452.931000 
	C532.655823,454.218445 534.585022,455.293793 537.449402,456.890381 
	C531.177185,462.964203 525.368774,468.588898 518.705383,474.101196 
M309.438812,326.942474 
	C296.233093,350.290894 294.768280,374.365265 305.997803,398.720795 
	C325.276886,440.534943 378.070251,447.789093 407.329315,412.885193 
	C427.168427,389.218658 430.495300,353.959076 414.791229,327.387634 
	C402.517395,306.620178 384.444763,294.922058 359.716187,295.905121 
	C337.634094,296.782959 321.606354,308.215332 309.438812,326.942474 
M455.695129,311.183563 
	C438.971283,341.112122 444.868378,378.659943 469.982605,402.154480 
	C501.363312,431.511353 549.073792,421.744781 566.038391,382.275177 
	C575.512024,360.233948 574.143372,338.206787 562.817261,317.330597 
	C538.101868,271.775360 480.946167,269.356567 455.695129,311.183563 
M337.586945,280.986328 
	C352.759003,271.762299 369.415588,267.833801 387.563599,267.643005 
	C377.395599,258.889099 364.368469,256.442596 353.101257,260.777313 
	C341.354706,265.296448 329.744171,278.052704 328.631073,287.647552 
	C331.409668,285.553802 334.188232,283.460083 337.586945,280.986328 
M492.858978,229.556030 
	C481.404175,223.972198 467.629395,224.095078 458.873047,230.304733 
	C481.706543,232.526443 498.141083,244.761536 511.801575,261.724487 
	C509.656769,248.656525 505.247772,237.144653 492.858978,229.556030 
M455.501343,539.066833 
	C466.058960,536.480347 472.561310,532.048889 474.591461,525.638489 
	C458.572876,532.219299 442.183472,532.340820 424.330017,529.815979 
	C433.716919,538.831543 443.426727,541.572510 455.501343,539.066833 
M350.480042,200.587692 
	C350.480042,200.587692 350.412750,200.476791 350.480042,200.587692 
z"/>
<path fill="#F4CBAB" opacity="1.000000" stroke="none" 
	d="
M631.568970,401.021027 
	C630.868164,400.336700 630.122375,399.491943 630.091187,398.621582 
	C629.062622,369.931366 621.775452,342.679688 610.899109,316.320587 
	C601.918335,294.555634 589.624512,274.723450 574.897766,256.354218 
	C559.204956,236.779968 540.901794,220.022522 520.227783,205.928543 
	C503.854187,194.766235 486.323669,185.673523 467.703949,178.758224 
	C465.720215,178.021500 463.876007,176.909134 461.810913,175.586792 
	C463.828674,173.015472 466.002594,170.828430 468.524811,168.558258 
	C512.882507,177.014069 551.628967,196.104660 584.663940,226.496109 
	C608.892334,248.785721 627.666687,275.021210 640.290588,305.462616 
	C647.940308,323.909454 661.480347,333.385529 682.207703,334.241180 
	C665.238770,356.688965 648.547974,378.768799 631.568970,401.021027 
z"/>
<path fill="#F0F1F2" opacity="1.000000" stroke="none" 
	d="
M422.545044,31.250904 
	C424.139038,31.732227 425.919373,31.906132 427.298401,32.742077 
	C442.325409,41.851269 451.666779,55.538124 457.825287,71.581650 
	C462.983795,85.020172 465.117645,99.040474 464.631195,113.547150 
	C458.837006,82.142349 446.527863,54.091522 422.889099,31.447020 
	C422.611572,31.228294 422.545044,31.250904 422.545044,31.250904 
z"/>
<path fill="#F0F1F2" opacity="1.000000" stroke="none" 
	d="
M422.644104,31.215038 
	C422.703552,30.903112 422.730438,30.604445 422.757324,30.305780 
	C422.883606,30.535793 423.009888,30.765806 422.840637,31.123362 
	C422.545044,31.250904 422.611572,31.228294 422.644104,31.215038 
z"/>
<path fill="#FDECDA" opacity="1.000000" stroke="none" 
	d="
M746.717224,641.499207 
	C741.914124,638.466919 737.488647,635.571350 732.983398,632.805664 
	C731.925476,632.156250 730.598083,631.945801 729.394653,631.533325 
	C729.843384,632.773804 730.028503,634.214172 730.789551,635.217712 
	C733.189880,638.382812 735.806030,641.384216 737.972656,645.717346 
	C736.578369,645.451111 734.692993,645.674805 733.864380,644.844238 
	C723.524353,634.480469 713.415710,623.885803 703.071472,613.526306 
	C699.172119,609.621277 700.726074,605.164368 701.266602,600.895996 
	C701.587524,598.361877 703.055298,595.973022 704.339783,592.662231 
	C708.932190,600.819580 713.100830,608.224243 717.269470,615.628845 
	C717.767395,615.416321 718.265320,615.203796 718.763306,614.991211 
	C718.715271,613.964233 718.858398,612.883240 718.585938,611.919800 
	C717.456360,607.925903 716.463928,603.864319 714.948914,600.013306 
	C706.003479,577.275757 712.001892,557.052124 725.131958,537.974731 
	C726.169250,536.467529 727.141174,534.881470 728.379578,533.551941 
	C741.285339,519.696533 746.978516,502.373749 752.110046,484.736328 
	C753.118164,481.271362 754.365356,477.698822 756.335999,474.729095 
	C760.046997,469.136505 766.302002,469.121948 769.651917,474.962585 
	C772.153503,479.324066 774.250183,484.387268 774.775208,489.324249 
	C776.307190,503.730103 774.554321,517.944702 768.938477,531.393433 
	C767.632080,534.521912 765.089478,537.707642 762.253662,539.512634 
	C754.778320,544.270630 750.814331,550.306030 751.797546,559.402649 
	C752.000793,561.283203 751.328491,563.813416 750.105469,565.205994 
	C739.677490,577.079834 741.645752,590.561523 755.197998,598.636475 
	C756.043701,599.140259 756.850281,599.709839 757.665527,600.242554 
	C749.894409,614.419250 754.330566,625.405396 769.937439,630.081055 
	C775.942688,631.880249 782.207703,632.812561 789.021179,634.283875 
	C776.024414,644.420776 762.136353,646.276001 746.717224,641.499207 
z"/>
<path fill="#FDECD9" opacity="1.000000" stroke="none" 
	d="
M804.615662,536.233887 
	C809.858887,538.849182 814.927368,541.014343 819.564087,543.878479 
	C825.677979,547.655029 827.686768,554.296326 825.513306,561.347778 
	C823.716919,567.176086 819.506531,569.931335 811.782654,569.395691 
	C797.685730,568.418091 783.598816,567.226135 769.538757,565.814941 
	C762.224670,565.080872 758.111938,560.083862 758.595642,553.471863 
	C759.075134,546.917480 763.359985,542.908142 770.720398,542.978577 
	C777.358948,543.042053 783.987915,543.851257 790.627991,544.201416 
	C792.014771,544.274597 793.431702,543.778259 794.834717,543.544373 
	C794.854431,543.091064 794.874084,542.637756 794.893799,542.184448 
	C787.958130,539.708740 781.022522,537.232971 773.819092,534.661682 
	C776.787354,531.710815 779.901794,530.657410 783.854553,531.609924 
	C790.619995,533.240234 797.447388,534.613586 804.615662,536.233887 
z"/>
<path fill="#FCECD9" opacity="1.000000" stroke="none" 
	d="
M787.734131,576.220581 
	C801.279358,576.271545 814.373718,576.271545 827.248535,576.271545 
	C831.309570,589.909485 827.728516,595.363892 814.433044,597.031128 
	C798.555542,599.022034 782.871155,596.963257 767.266785,594.498901 
	C763.146973,593.848267 759.062134,591.738464 755.432617,589.525574 
	C750.558899,586.554138 749.131165,581.076294 751.069702,575.988403 
	C753.164429,570.490845 755.663452,569.496155 761.433899,570.840332 
	C769.999390,572.835632 778.661987,574.413879 787.734131,576.220581 
z"/>
<path fill="#FDECD9" opacity="1.000000" stroke="none" 
	d="
M796.498291,624.744629 
	C789.234741,624.546387 782.316589,624.936340 775.663269,623.789490 
	C771.326904,623.041992 766.871704,620.698120 763.369385,617.930847 
	C758.076355,613.748779 760.108215,605.825500 766.565002,603.724365 
	C767.962158,603.269592 769.514221,602.957703 770.964600,603.051208 
	C786.874573,604.076233 802.778564,605.194702 818.640747,606.284851 
	C819.969482,615.191895 816.133850,621.225708 807.807373,623.104614 
	C804.252686,623.906677 800.576904,624.171692 796.498291,624.744629 
z"/>
<path fill="#FDECD9" opacity="1.000000" stroke="none" 
	d="
M102.368874,722.408569 
	C97.320892,724.848999 92.738693,727.784607 87.731148,729.096008 
	C79.403824,731.276794 72.851418,727.138000 67.610184,721.012756 
	C66.750427,720.007935 66.752205,717.403198 67.438248,716.113831 
	C68.980095,713.216064 70.842804,710.298035 73.215012,708.069702 
	C79.759903,701.921692 86.561089,696.038269 93.410271,690.226196 
	C96.463181,687.635559 100.399918,685.745728 103.756287,688.923828 
	C107.117737,692.106812 106.259933,696.529297 103.599655,699.866150 
	C98.633430,706.095459 93.231865,711.978271 87.991020,717.987427 
	C87.377693,718.690674 86.635681,719.281738 84.954880,720.865723 
	C87.199142,720.626282 88.248589,720.729980 89.124214,720.388306 
	C100.268372,716.039124 109.436089,709.545837 112.464828,697.161072 
	C115.227905,685.862610 107.505417,677.946716 96.000084,679.622192 
	C94.422874,679.851868 92.280144,678.557617 90.912445,677.375366 
	C88.062630,674.911804 85.988976,671.037598 82.775536,669.665527 
	C80.079254,668.514282 75.782524,669.209473 72.948029,670.611206 
	C60.306927,676.862366 47.937321,683.662537 35.467625,690.260559 
	C28.797340,693.789917 21.458340,692.531616 15.671556,686.875549 
	C9.849333,681.184814 7.505925,672.458191 11.545495,666.436707 
	C17.178551,658.039856 23.761076,650.269897 30.099133,642.361328 
	C32.495773,639.370850 35.063095,639.298218 38.028244,642.285461 
	C43.734875,648.034546 45.285118,655.167908 41.749710,663.886169 
	C40.259983,667.559875 38.027554,670.926392 36.366917,674.540161 
	C35.813869,675.743530 35.990273,677.282104 36.547848,679.108337 
	C41.762001,668.201965 52.234306,665.770447 61.799522,661.870972 
	C73.232941,657.209717 81.003662,648.775146 84.964973,637.208984 
	C87.533745,629.708679 89.184586,621.890503 91.138367,614.187256 
	C91.406532,613.129944 91.047279,611.913452 90.978508,610.770691 
	C90.539795,610.610229 90.101082,610.449707 89.662369,610.289246 
	C87.365150,612.990784 85.146240,615.763916 82.755318,618.379761 
	C76.764328,624.934387 69.788269,629.166443 60.390934,628.033752 
	C52.201782,627.046692 49.718151,622.164978 54.283035,615.277283 
	C64.262520,600.219788 77.567955,590.362610 96.360909,591.238220 
	C110.942657,591.917603 122.961411,599.202454 133.225723,609.162170 
	C137.978958,613.774414 141.980789,619.163025 146.299072,624.220398 
	C147.751724,625.921753 149.129608,627.686951 151.121582,629.058228 
	C150.956345,623.022766 147.833633,618.352051 144.480255,613.862061 
	C141.114395,609.355347 137.491714,605.040344 133.577881,600.135437 
	C142.062729,597.418579 149.015076,599.680908 155.165207,604.675720 
	C164.426178,612.197021 169.845627,622.391052 172.597107,633.686096 
	C173.921402,639.122498 173.488800,645.218384 172.691864,650.851624 
	C172.225708,654.146606 169.473495,657.118164 167.131058,661.353882 
	C165.110931,656.669312 163.687561,653.368652 162.264191,650.067932 
	C161.894318,650.148071 161.524429,650.228210 161.154541,650.308350 
	C161.154541,652.173035 161.057159,654.043701 161.170181,655.901550 
	C161.971710,669.077820 156.854218,679.590393 146.654648,687.670532 
	C132.043121,699.245972 117.319336,710.679565 102.368874,722.408569 
M104.706375,656.352966 
	C103.608727,659.767883 102.511078,663.182861 101.413429,666.597778 
	C101.834900,666.802673 102.256371,667.007629 102.677841,667.212524 
	C112.615463,655.284851 122.725815,643.606934 139.567596,641.130432 
	C137.499374,640.071045 135.431488,639.171875 133.305038,639.000854 
	C120.022057,637.932617 111.646202,645.356018 104.706375,656.352966 
z"/>
<path fill="#FBF3D7" opacity="1.000000" stroke="none" 
	d="
M70.740654,678.754028 
	C72.378670,677.866882 73.659752,677.099243 75.000755,676.456604 
	C78.597412,674.733215 81.681297,675.070374 84.115379,678.610596 
	C86.574936,682.187866 86.354645,685.488098 83.194618,688.384094 
	C77.443573,693.654663 71.564262,698.785034 65.769798,704.008667 
	C64.167221,705.453247 62.658798,707.004150 61.135983,708.534912 
	C58.680161,711.003601 57.122055,715.170959 52.418591,713.530457 
	C46.109276,711.329895 39.606003,709.157837 37.821617,701.567200 
	C37.542919,700.381714 38.432011,698.250854 39.460625,697.538696 
	C45.694355,693.223083 52.045231,689.060852 58.520802,685.116394 
	C62.327690,682.797424 66.437477,680.975769 70.740654,678.754028 
z"/>
<path fill="#FFFFFF" opacity="1.000000" stroke="none" 
	d="
M473.613739,785.092285 
	C473.377350,793.815857 476.801544,801.395935 479.811401,809.441406 
	C470.008392,809.955811 460.720825,809.986511 451.433228,809.997620 
	C442.255096,810.008667 433.076935,810.000000 423.898804,810.000000 
	C423.905243,810.280090 423.911713,810.560181 423.918152,810.840332 
	C424.570831,810.946350 425.223511,811.052368 425.876190,811.158386 
	C425.127350,811.715454 424.368103,812.769104 423.631287,812.753601 
	C415.297607,812.578247 406.714539,810.918030 398.732147,812.445435 
	C394.036865,813.343811 389.846832,811.734070 385.351379,812.765625 
	C378.662506,814.300293 371.742981,814.956604 364.884308,815.568542 
	C361.654602,815.856628 358.338104,815.171570 354.618744,814.927490 
	C355.746979,811.489136 357.118073,807.941895 358.926147,804.633423 
	C363.856567,795.611633 368.971588,786.690613 374.478241,777.382324 
	C388.376740,782.769348 401.556122,781.807739 414.184204,774.883484 
	C420.709869,771.305298 426.769836,766.877686 433.040222,762.833862 
	C443.424896,769.097473 453.750061,775.463501 464.234619,781.555176 
	C466.978729,783.149597 470.218201,783.891479 473.613739,785.092285 
z"/>
<path fill="#F7D9C7" opacity="1.000000" stroke="none" 
	d="
M242.736893,379.178101 
	C243.344376,380.897736 243.891479,382.786316 243.957596,384.691620 
	C244.375229,396.725250 243.787170,408.872131 245.236923,420.773804 
	C247.585068,440.050934 252.510925,458.816193 259.915436,476.877838 
	C270.288666,502.180908 284.714783,524.774170 303.255219,544.946289 
	C317.870667,560.848022 334.344543,574.242676 352.712189,585.445801 
	C352.960236,585.597107 353.074158,585.968140 353.837311,587.128723 
	C352.005981,586.578125 350.885529,586.376709 349.881531,585.919617 
	C322.758606,573.569214 298.962616,556.531433 279.021118,534.403625 
	C261.062988,514.476624 247.300827,491.871613 238.022461,466.619415 
	C231.534439,448.961517 226.829178,430.920288 225.930298,412.021271 
	C225.781326,408.889252 225.296005,405.773254 224.939209,402.177124 
	C230.759567,394.254517 236.606857,386.804626 242.736893,379.178101 
z"/>
<path fill="#01559E" opacity="1.000000" stroke="none" 
	d="
M432.911926,762.522827 
	C426.769836,766.877686 420.709869,771.305298 414.184204,774.883484 
	C401.556122,781.807739 388.376740,782.769348 374.567993,777.021240 
	C369.197968,772.767090 363.269501,769.239075 359.384827,764.150818 
	C348.228088,749.537048 347.173798,733.642212 356.075714,716.930664 
	C376.512085,728.589539 396.796417,740.590454 417.058685,752.628540 
	C422.335632,755.763550 427.543854,759.014221 432.911926,762.522827 
z"/>
<path fill="#F7D9C7" opacity="1.000000" stroke="none" 
	d="
M228.404221,358.989044 
	C230.794693,347.018341 232.743057,334.836731 236.609253,323.297729 
	C243.710861,302.102295 254.414566,282.607483 268.095306,264.865509 
	C284.054810,244.168350 302.934326,226.646057 325.487213,213.282700 
	C331.615814,209.651276 338.007751,206.464310 344.639435,203.036682 
	C345.000000,203.000000 345.000000,203.000290 345.000000,203.000290 
	C343.795929,204.267471 342.701538,205.665466 341.370575,206.781265 
	C330.071106,216.254059 317.754944,224.736664 307.580811,235.287720 
	C276.580017,267.437073 255.911896,305.315613 247.877151,349.631256 
	C246.847183,355.311951 245.587830,360.951080 244.109222,366.848511 
	C240.377213,361.469391 235.572632,358.458710 228.404221,358.989044 
z"/>
<path fill="#F3CAAB" opacity="1.000000" stroke="none" 
	d="
M581.581421,566.189514 
	C582.261902,564.275696 583.010254,562.084412 584.302551,560.283630 
	C604.346191,532.353027 617.748474,501.497192 625.000977,467.950226 
	C626.572327,460.682129 627.664062,453.310333 628.975220,445.575195 
	C636.751221,444.801300 644.528687,444.438477 653.138855,444.036804 
	C641.914062,492.539673 618.499512,533.131287 581.581421,566.189514 
z"/>
<path fill="#F3CAAB" opacity="1.000000" stroke="none" 
	d="
M580.345215,567.246826 
	C580.263184,567.001221 580.463013,566.649475 580.973755,566.245728 
	C581.065552,566.509338 580.846313,566.825012 580.345215,567.246826 
z"/>
<path fill="#202C45" opacity="1.000000" stroke="none" 
	d="
M495.161957,822.337891 
	C496.760254,821.381104 498.562317,820.083130 500.294800,820.170166 
	C508.196045,820.567078 516.068420,821.515503 523.968262,821.968811 
	C547.214661,823.302612 570.349060,825.486145 593.020691,831.060669 
	C598.137817,832.318909 603.072083,834.320862 608.464417,835.983459 
	C607.664001,838.154297 606.489746,840.322083 604.725098,842.691040 
	C600.281860,841.375000 596.549377,839.110596 592.555786,838.467712 
	C573.518982,835.403320 554.422485,832.699341 535.322693,830.043213 
	C528.793823,829.135254 522.203186,828.559204 515.620667,828.210999 
	C513.365784,828.091675 510.138947,826.254456 508.947510,830.226440 
	C504.409576,827.695801 499.871643,825.165161 495.161957,822.337891 
z"/>
<path fill="#474F62" opacity="1.000000" stroke="none" 
	d="
M592.290222,854.124451 
	C578.656677,862.511292 564.663269,862.256348 550.756714,855.210632 
	C543.382568,851.474548 536.466614,846.834045 529.453613,842.014038 
	C538.447754,841.953613 547.438110,841.802368 556.190918,843.170898 
	C568.659607,845.120300 582.144897,844.320251 592.290222,854.124451 
z"/>
<path fill="#2D384F" opacity="1.000000" stroke="none" 
	d="
M509.143677,830.493469 
	C510.138947,826.254456 513.365784,828.091675 515.620667,828.210999 
	C522.203186,828.559204 528.793823,829.135254 535.322693,830.043213 
	C554.422485,832.699341 573.518982,835.403320 592.555786,838.467712 
	C596.549377,839.110596 600.281860,841.375000 604.485962,842.934998 
	C603.211487,844.844360 601.585632,846.710999 599.517273,848.355957 
	C596.890198,846.757629 594.867676,844.667969 592.492859,844.127991 
	C582.408630,841.835266 572.278137,839.604675 562.054016,838.104736 
	C550.028137,836.340454 537.899719,835.222595 525.786621,834.154663 
	C523.594727,833.961487 521.262573,835.359985 518.995178,836.023621 
	C515.776733,834.269226 512.558289,832.514893 509.143677,830.493469 
z"/>
<path fill="#3A4459" opacity="1.000000" stroke="none" 
	d="
M519.162170,836.318054 
	C521.262573,835.359985 523.594727,833.961487 525.786621,834.154663 
	C537.899719,835.222595 550.028137,836.340454 562.054016,838.104736 
	C572.278137,839.604675 582.408630,841.835266 592.492859,844.127991 
	C594.867676,844.667969 596.890198,846.757629 599.212402,848.542603 
	C597.175476,850.547668 595.000793,852.144470 592.558167,853.932861 
	C582.144897,844.320251 568.659607,845.120300 556.190918,843.170898 
	C547.438110,841.802368 538.447754,841.953613 529.275513,841.726074 
	C525.768066,840.221375 522.548645,838.416931 519.162170,836.318054 
z"/>
<path fill="#253049" opacity="1.000000" stroke="none" 
	d="
M296.103760,837.366882 
	C302.915771,834.691406 309.779724,831.697754 316.955383,830.136475 
	C326.112335,828.144043 335.521027,827.308655 345.247711,825.966248 
	C334.241974,840.047302 314.171051,844.813843 296.103760,837.366882 
z"/>
<path fill="#BBB8B8" opacity="1.000000" stroke="none" 
	d="
M487.505615,889.976318 
	C463.929718,889.995483 440.796112,890.031006 417.663147,889.923645 
	C416.153015,889.916626 414.648010,888.814148 413.140625,888.221191 
	C414.593140,887.176147 415.961945,885.969910 417.533264,885.153381 
	C418.330475,884.739136 419.492828,885.002258 420.490112,885.002014 
	C441.127167,884.997009 461.764343,884.972595 482.401154,885.040222 
	C484.349091,885.046570 486.460541,885.269043 488.203644,886.046692 
	C490.896393,887.248047 490.890259,888.835632 487.505615,889.976318 
z"/>
<path fill="#ACACAC" opacity="1.000000" stroke="none" 
	d="
M496.096985,889.408447 
	C497.340942,888.802612 498.296112,888.463196 499.251312,888.123779 
	C499.462616,888.687744 499.673889,889.251770 499.885193,889.815735 
	C497.672363,890.541565 495.462799,891.887512 493.246277,891.899109 
	C465.472198,892.043884 437.696960,892.045105 409.922882,891.906067 
	C407.613007,891.894531 405.309540,890.600891 403.003082,889.902954 
	C403.141937,889.485840 403.280792,889.068726 403.419617,888.651611 
	C403.860809,888.486389 404.543884,888.049438 404.708008,888.195496 
	C409.519012,892.478516 415.369568,890.918884 420.838806,890.947388 
	C443.789795,891.066895 466.741882,891.031860 489.693176,890.941345 
	C491.733154,890.933289 493.769958,890.116272 496.096985,889.408447 
z"/>
<path fill="#808080" opacity="1.000000" stroke="none" 
	d="
M426.353088,811.134033 
	C425.223511,811.052368 424.570831,810.946350 423.918152,810.840332 
	C423.911713,810.560181 423.905243,810.280090 423.898804,810.000000 
	C433.076935,810.000000 442.255096,810.008667 451.433228,809.997620 
	C460.720825,809.986511 470.008392,809.955811 479.770935,809.818359 
	C480.245880,809.703064 480.211395,809.803101 480.033386,810.155029 
	C478.946625,810.723633 478.037842,810.940369 477.129028,811.157104 
	C460.362671,811.141296 443.596344,811.125488 426.353088,811.134033 
z"/>
<path fill="#FFFFFF" opacity="1.000000" stroke="none" 
	d="
M477.143433,811.505310 
	C478.037842,810.940369 478.946625,810.723633 479.983398,810.172363 
	C480.994080,810.308350 481.876740,810.779053 482.791626,811.588745 
	C480.935181,811.902954 479.046478,811.878235 477.143433,811.505310 
z"/>
<path fill="#252422" opacity="1.000000" stroke="none" 
	d="
M309.649811,326.644653 
	C321.606354,308.215332 337.634094,296.782959 359.716187,295.905121 
	C384.444763,294.922058 402.517395,306.620178 414.791229,327.387634 
	C430.495300,353.959076 427.168427,389.218658 407.329315,412.885193 
	C378.070251,447.789093 325.276886,440.534943 305.997803,398.720795 
	C294.768280,374.365265 296.233093,350.290894 309.649811,326.644653 
M411.328857,397.710205 
	C420.491730,378.465302 421.099243,358.942810 412.681763,339.369812 
	C397.213654,303.402069 353.125519,293.315155 325.578766,319.302338 
	C302.421906,341.148163 297.699493,376.663727 314.344940,403.787415 
	C326.591827,423.743774 348.226227,434.101349 370.354980,429.907776 
	C389.099854,426.355530 402.139984,414.933838 411.328857,397.710205 
z"/>
<path fill="#262523" opacity="1.000000" stroke="none" 
	d="
M455.857513,310.854614 
	C480.946167,269.356567 538.101868,271.775360 562.817261,317.330597 
	C574.143372,338.206787 575.512024,360.233948 566.038391,382.275177 
	C549.073792,421.744781 501.363312,431.511353 469.982605,402.154480 
	C444.868378,378.659943 438.971283,341.112122 455.857513,310.854614 
M489.698120,409.961029 
	C516.840698,421.249054 544.645752,411.793091 558.558716,386.542816 
	C575.111633,356.501465 564.937134,316.637451 535.988647,298.112671 
	C509.716248,281.300354 476.633240,289.309906 460.907745,316.290039 
	C441.745880,349.166016 454.644470,392.029449 489.698120,409.961029 
z"/>
<path fill="#292525" opacity="1.000000" stroke="none" 
	d="
M519.560425,474.213623 
	C525.368774,468.588898 531.177185,462.964203 537.449402,456.890381 
	C534.585022,455.293793 532.655823,454.218445 530.346069,452.931000 
	C534.942444,450.428284 538.906555,450.485260 542.446289,453.897186 
	C546.027832,457.349426 546.411377,463.242004 543.382690,469.201263 
	C542.422913,467.044708 541.608948,465.215759 540.694641,463.161499 
	C525.920166,483.816711 506.941528,498.847137 483.511597,507.787720 
	C447.767395,521.427307 413.869843,515.805542 381.921997,496.181335 
	C371.787903,489.956390 362.478363,482.389008 352.547089,475.260559 
	C352.156158,477.023529 351.713806,479.018402 351.248749,481.115570 
	C347.280212,477.734772 346.446808,471.911072 349.132751,467.387390 
	C351.624847,463.190125 355.761993,462.056427 361.187683,464.145203 
	C359.147705,465.775726 357.140228,467.380249 354.030792,469.865570 
	C362.873016,475.574615 371.036621,480.845490 379.754150,486.484802 
	C386.838135,489.643158 393.368164,492.433075 400.114929,495.528961 
	C411.193329,498.060883 421.961090,501.200623 432.935608,502.328186 
	C458.068787,504.910400 481.737396,499.804810 503.594604,486.030823 
	C509.138672,482.053284 514.349548,478.133453 519.560425,474.213623 
z"/>
<path fill="#F6DBCD" opacity="1.000000" stroke="none" 
	d="
M399.898193,495.223022 
	C393.368164,492.433075 386.838135,489.643158 380.098328,486.584412 
	C384.147736,486.338501 388.440857,486.021423 392.660217,486.442932 
	C411.250397,488.300079 429.836853,490.622467 448.520264,488.049805 
	C464.015869,485.916138 479.519806,483.721863 494.893066,480.869904 
	C502.971039,479.371277 510.776733,476.404816 519.132935,474.157410 
	C514.349548,478.133453 509.138672,482.053284 503.189636,486.011292 
	C501.007050,486.396637 499.480377,486.549438 498.130859,487.120728 
	C483.022583,493.516388 467.058014,496.541565 450.892670,497.790192 
	C435.001984,499.017609 419.072418,497.893250 403.365021,494.691864 
	C402.290131,494.472809 401.057495,495.027924 399.898193,495.223022 
z"/>
<path fill="#242220" opacity="1.000000" stroke="none" 
	d="
M337.276886,281.176331 
	C334.188232,283.460083 331.409668,285.553802 328.634094,287.651611 
	C329.744171,278.052704 341.354706,265.296448 353.101257,260.777313 
	C364.368469,256.442596 377.395599,258.889099 387.563599,267.643005 
	C369.415588,267.833801 352.759003,271.762299 337.276886,281.176331 
z"/>
<path fill="#262421" opacity="1.000000" stroke="none" 
	d="
M493.185760,229.731613 
	C505.247772,237.144653 509.656769,248.656525 511.801575,261.724487 
	C498.141083,244.761536 481.706543,232.526443 458.873047,230.304733 
	C467.629395,224.095078 481.404175,223.972198 493.185760,229.731613 
z"/>
<path fill="#2E2A2A" opacity="1.000000" stroke="none" 
	d="
M455.075317,539.132019 
	C443.426727,541.572510 433.716919,538.831543 424.330017,529.815979 
	C442.183472,532.340820 458.572876,532.219299 474.591461,525.638489 
	C472.561310,532.048889 466.058960,536.480347 455.075317,539.132019 
z"/>
<path fill="#F7D9C7" opacity="1.000000" stroke="none" 
	d="
M345.000000,202.999695 
	C345.095215,202.965347 345.190430,202.931320 345.142822,202.948792 
	C345.000000,203.000290 345.000000,203.000000 345.000000,202.999695 
z"/>
<path fill="#F7D9C7" opacity="1.000000" stroke="none" 
	d="
M350.446411,200.532242 
	C350.412750,200.476791 350.480042,200.587692 350.446411,200.532242 
z"/>
<path fill="#1D2942" opacity="1.000000" stroke="none" 
	d="
M104.858253,656.008179 
	C111.646202,645.356018 120.022057,637.932617 133.305038,639.000854 
	C135.431488,639.171875 137.499374,640.071045 139.567596,641.130432 
	C122.725815,643.606934 112.615463,655.284851 102.677841,667.212524 
	C102.256371,667.007629 101.834900,666.802673 101.413429,666.597778 
	C102.511078,663.182861 103.608727,659.767883 104.858253,656.008179 
z"/>
<path fill="#FEFEFE" opacity="1.000000" stroke="none" 
	d="
M411.172272,398.050354 
	C402.139984,414.933838 389.099854,426.355530 370.354980,429.907776 
	C348.226227,434.101349 326.591827,423.743774 314.344940,403.787415 
	C297.699493,376.663727 302.421906,341.148163 325.578766,319.302338 
	C353.125519,293.315155 397.213654,303.402069 412.681763,339.369812 
	C421.099243,358.942810 420.491730,378.465302 411.172272,398.050354 
M379.351654,367.089447 
	C389.852722,366.395294 397.328308,361.219971 400.965240,351.393677 
	C404.508881,341.819366 402.615326,332.892822 395.344177,325.651184 
	C388.185364,318.521393 379.333954,317.005127 369.947479,320.179016 
	C359.219604,323.806458 352.581940,335.238617 354.264893,346.239044 
	C356.130341,358.432220 365.281250,366.343994 379.351654,367.089447 
z"/>
<path fill="#FEFEFE" opacity="1.000000" stroke="none" 
	d="
M489.350159,409.805969 
	C454.644470,392.029449 441.745880,349.166016 460.907745,316.290039 
	C476.633240,289.309906 509.716248,281.300354 535.988647,298.112671 
	C564.937134,316.637451 575.111633,356.501465 558.558716,386.542816 
	C544.645752,411.793091 516.840698,421.249054 489.350159,409.805969 
M533.752380,347.369995 
	C542.429443,340.232483 545.872742,330.594788 542.647705,320.832520 
	C539.404846,311.016174 532.617065,305.042358 522.110291,303.775543 
	C512.388855,302.603424 503.083710,307.317871 498.250427,315.832123 
	C492.842468,325.358765 494.582550,337.332886 502.507507,345.126343 
	C510.766937,353.248749 522.163940,354.249817 533.752380,347.369995 
z"/>
<path fill="#F6E6D4" opacity="1.000000" stroke="none" 
	d="
M400.114929,495.528961 
	C401.057495,495.027924 402.290131,494.472809 403.365021,494.691864 
	C419.072418,497.893250 435.001984,499.017609 450.892670,497.790192 
	C467.058014,496.541565 483.022583,493.516388 498.130859,487.120728 
	C499.480377,486.549438 501.007050,486.396637 502.856415,486.068970 
	C481.737396,499.804810 458.068787,504.910400 432.935608,502.328186 
	C421.961090,501.200623 411.193329,498.060883 400.114929,495.528961 
z"/>
<path fill="#201F1D" opacity="1.000000" stroke="none" 
	d="
M378.904907,367.122894 
	C365.281250,366.343994 356.130341,358.432220 354.264893,346.239044 
	C352.581940,335.238617 359.219604,323.806458 369.947479,320.179016 
	C379.333954,317.005127 388.185364,318.521393 395.344177,325.651184 
	C402.615326,332.892822 404.508881,341.819366 400.965240,351.393677 
	C397.328308,361.219971 389.852722,366.395294 378.904907,367.122894 
M378.748596,340.368835 
	C382.344086,337.454407 383.253540,333.855042 381.057281,329.779205 
	C378.955536,325.878662 374.161346,324.587433 370.295929,326.617249 
	C366.553345,328.582520 364.917206,332.986755 366.515778,336.793121 
	C368.425446,341.340210 372.654541,342.809692 378.748596,340.368835 
z"/>
<path fill="#21201E" opacity="1.000000" stroke="none" 
	d="
M533.463379,347.595032 
	C522.163940,354.249817 510.766937,353.248749 502.507507,345.126343 
	C494.582550,337.332886 492.842468,325.358765 498.250427,315.832123 
	C503.083710,307.317871 512.388855,302.603424 522.110291,303.775543 
	C532.617065,305.042358 539.404846,311.016174 542.647705,320.832520 
	C545.872742,330.594788 542.429443,340.232483 533.463379,347.595032 
M515.864441,328.526459 
	C519.025452,326.141968 520.394958,322.752472 518.762817,319.334045 
	C517.696289,317.100403 515.166687,314.951935 512.809082,314.094879 
	C509.440521,312.870270 506.253662,314.470276 504.292114,317.621643 
	C502.320068,320.789948 502.555054,324.051117 504.934753,326.871094 
	C507.720551,330.172302 511.213104,330.997894 515.864441,328.526459 
z"/>
<path fill="#F8F8F8" opacity="1.000000" stroke="none" 
	d="
M378.429688,340.595398 
	C372.654541,342.809692 368.425446,341.340210 366.515778,336.793121 
	C364.917206,332.986755 366.553345,328.582520 370.295929,326.617249 
	C374.161346,324.587433 378.955536,325.878662 381.057281,329.779205 
	C383.253540,333.855042 382.344086,337.454407 378.429688,340.595398 
z"/>
<path fill="#F9F9F9" opacity="1.000000" stroke="none" 
	d="
M515.523010,328.726471 
	C511.213104,330.997894 507.720551,330.172302 504.934753,326.871094 
	C502.555054,324.051117 502.320068,320.789948 504.292114,317.621643 
	C506.253662,314.470276 509.440521,312.870270 512.809082,314.094879 
	C515.166687,314.951935 517.696289,317.100403 518.762817,319.334045 
	C520.394958,322.752472 519.025452,326.141968 515.523010,328.726471 
z"/>
</svg>